<svg xmlns="http://www.w3.org/2000/svg" viewBox="0 0 24 24">
  <g id="acta-machina">
    <circle cx="3" cy="6.75" r="1"></circle>
    <circle cx="3" cy="17.25" r="1"></circle>

    <circle cx="7.5" cy="4.125" r="1"></circle>
    <circle cx="7.5" cy="14.625" r="1"></circle>

    <circle cx="12" cy="1.5" r="1"></circle>
    <circle cx="12" cy="12" r="1"></circle>
    <circle cx="12" cy="22.5" r="1"></circle>

    <circle cx="16.5" cy="9.375" r="1"></circle>
    <circle cx="16.5" cy="19.875" r="1"></circle>

    <circle cx="21" cy="6.75" r="1"></circle>
    <circle cx="21" cy="17.25" r="1"></circle>

    <line x1="3" y1="7.75" x2="3" y2="16.25"></line>

    <line x1="7.5" y1="5.125" x2="7.5" y2="13.625"></line>

    <line x1="12" y1="2.5" x2="12" y2="11"></line>
    <line x1="12" y1="13" x2="12" y2="21.5"></line>

    <line x1="16.5" y1="10.375" x2="16.5" y2="18.875"></line>

    <line x1="21" y1="7.75" x2="21" y2="16.25"></line>

    <line x1="3.866" y1="7.25" x2="11.134" y2="11.5"></line>
    <line x1="3.866" y1="17.75" x2="11.134" y2="22"></line>

    <line x1="8.366" y1="4.625" x2="15.634" y2="8.875"></line>
    <line x1="8.366" y1="15.125" x2="15.634" y2="19.375"></line>

    <line x1="12.866" y1="2" x2="20.134" y2="6.25"></line>
    <line x1="12.866" y1="12.5" x2="20.134" y2="16.75"></line>
  </g>
  <g id="hyperfocal" transform="rotate(135, 12, 12)">
    <path d="M 3.340 7 A 10 10 0 0 1 22 12 L 2 12 A 10 10 0 0 0 20.660 17" />
  </g>
  <g id="procedural">
    <circle cx="12" cy="12" r="10" fill="none" stroke="currentColor" stroke-width="1.5"></circle>
    <path d="M 9 7 L 9 17 M 9 7 H 13 A 3 3 0 0 1 13 13 H 9" fill="none" stroke="currentColor" stroke-linecap="round" stroke-width="1.5" />
  </g>
</svg>